<mxfile host="app.diagrams.net" modified="2023-03-06T02:21:22.132Z" agent="5.0 (Windows NT 10.0; Win64; x64) AppleWebKit/537.36 (KHTML, like Gecko) Chrome/110.0.0.0 Safari/537.36" etag="FWZP4xlSrcd5phx68RML" version="21.0.2" type="github">
  <diagram name="第 1 页" id="-xCAmt3GZVza_Lq7m_Li">
    <mxGraphModel dx="1050" dy="541" grid="1" gridSize="10" guides="1" tooltips="1" connect="1" arrows="1" fold="1" page="1" pageScale="1" pageWidth="827" pageHeight="1169" math="0" shadow="0">
      <root>
        <mxCell id="0" />
        <mxCell id="1" parent="0" />
        <mxCell id="wJusNzU9xoTJ1JT3j_27-7" style="edgeStyle=orthogonalEdgeStyle;rounded=0;orthogonalLoop=1;jettySize=auto;html=1;exitX=0.5;exitY=0.5;exitDx=0;exitDy=0;exitPerimeter=0;entryX=0;entryY=0.5;entryDx=0;entryDy=0;" parent="1" source="wJusNzU9xoTJ1JT3j_27-1" target="wJusNzU9xoTJ1JT3j_27-6" edge="1">
          <mxGeometry relative="1" as="geometry" />
        </mxCell>
        <mxCell id="wJusNzU9xoTJ1JT3j_27-9" style="edgeStyle=orthogonalEdgeStyle;rounded=0;orthogonalLoop=1;jettySize=auto;html=1;exitX=0.5;exitY=0.5;exitDx=0;exitDy=0;exitPerimeter=0;entryX=0;entryY=0.715;entryDx=0;entryDy=0;entryPerimeter=0;" parent="1" source="wJusNzU9xoTJ1JT3j_27-1" target="wJusNzU9xoTJ1JT3j_27-8" edge="1">
          <mxGeometry relative="1" as="geometry" />
        </mxCell>
        <mxCell id="wJusNzU9xoTJ1JT3j_27-11" style="edgeStyle=orthogonalEdgeStyle;rounded=0;orthogonalLoop=1;jettySize=auto;html=1;exitX=0.5;exitY=0.5;exitDx=0;exitDy=0;exitPerimeter=0;" parent="1" source="wJusNzU9xoTJ1JT3j_27-1" target="wJusNzU9xoTJ1JT3j_27-10" edge="1">
          <mxGeometry relative="1" as="geometry" />
        </mxCell>
        <mxCell id="wJusNzU9xoTJ1JT3j_27-13" style="edgeStyle=orthogonalEdgeStyle;rounded=0;orthogonalLoop=1;jettySize=auto;html=1;exitX=0.5;exitY=0.5;exitDx=0;exitDy=0;exitPerimeter=0;entryX=0;entryY=0.5;entryDx=0;entryDy=0;" parent="1" source="wJusNzU9xoTJ1JT3j_27-1" target="wJusNzU9xoTJ1JT3j_27-12" edge="1">
          <mxGeometry relative="1" as="geometry" />
        </mxCell>
        <mxCell id="wJusNzU9xoTJ1JT3j_27-24" style="edgeStyle=orthogonalEdgeStyle;rounded=0;orthogonalLoop=1;jettySize=auto;html=1;exitX=0.5;exitY=0.5;exitDx=0;exitDy=0;exitPerimeter=0;entryX=0;entryY=0.5;entryDx=0;entryDy=0;" parent="1" source="wJusNzU9xoTJ1JT3j_27-1" target="wJusNzU9xoTJ1JT3j_27-23" edge="1">
          <mxGeometry relative="1" as="geometry" />
        </mxCell>
        <mxCell id="wJusNzU9xoTJ1JT3j_27-29" style="edgeStyle=orthogonalEdgeStyle;rounded=0;orthogonalLoop=1;jettySize=auto;html=1;exitX=0.5;exitY=0.5;exitDx=0;exitDy=0;exitPerimeter=0;entryX=0;entryY=0.5;entryDx=0;entryDy=0;" parent="1" source="wJusNzU9xoTJ1JT3j_27-1" target="wJusNzU9xoTJ1JT3j_27-28" edge="1">
          <mxGeometry relative="1" as="geometry" />
        </mxCell>
        <mxCell id="wJusNzU9xoTJ1JT3j_27-1" value="教师" style="shape=umlActor;verticalLabelPosition=bottom;verticalAlign=top;html=1;outlineConnect=0;fillColor=#f8cecc;strokeColor=#b85450;" parent="1" vertex="1">
          <mxGeometry x="230" y="210" width="30" height="60" as="geometry" />
        </mxCell>
        <mxCell id="wJusNzU9xoTJ1JT3j_27-33" style="edgeStyle=orthogonalEdgeStyle;rounded=0;orthogonalLoop=1;jettySize=auto;html=1;exitX=0.75;exitY=0.1;exitDx=0;exitDy=0;exitPerimeter=0;" parent="1" target="wJusNzU9xoTJ1JT3j_27-32" edge="1">
          <mxGeometry relative="1" as="geometry">
            <mxPoint x="62.5" y="666" as="sourcePoint" />
            <Array as="points">
              <mxPoint x="63" y="670" />
              <mxPoint x="270" y="670" />
              <mxPoint x="270" y="535" />
            </Array>
          </mxGeometry>
        </mxCell>
        <mxCell id="wJusNzU9xoTJ1JT3j_27-47" style="edgeStyle=orthogonalEdgeStyle;rounded=0;orthogonalLoop=1;jettySize=auto;html=1;exitX=0.75;exitY=0.1;exitDx=0;exitDy=0;exitPerimeter=0;entryX=0;entryY=0.5;entryDx=0;entryDy=0;" parent="1" target="wJusNzU9xoTJ1JT3j_27-46" edge="1">
          <mxGeometry relative="1" as="geometry">
            <Array as="points">
              <mxPoint x="63" y="670" />
              <mxPoint x="150" y="670" />
              <mxPoint x="150" y="850" />
            </Array>
            <mxPoint x="62.5" y="666" as="sourcePoint" />
          </mxGeometry>
        </mxCell>
        <mxCell id="wJusNzU9xoTJ1JT3j_27-17" style="edgeStyle=orthogonalEdgeStyle;rounded=0;orthogonalLoop=1;jettySize=auto;html=1;exitX=1;exitY=0.5;exitDx=0;exitDy=0;" parent="1" source="wJusNzU9xoTJ1JT3j_27-6" target="wJusNzU9xoTJ1JT3j_27-16" edge="1">
          <mxGeometry relative="1" as="geometry" />
        </mxCell>
        <mxCell id="wJusNzU9xoTJ1JT3j_27-19" style="edgeStyle=orthogonalEdgeStyle;rounded=0;orthogonalLoop=1;jettySize=auto;html=1;exitX=1;exitY=0.5;exitDx=0;exitDy=0;entryX=0.035;entryY=0.72;entryDx=0;entryDy=0;entryPerimeter=0;" parent="1" source="wJusNzU9xoTJ1JT3j_27-6" target="wJusNzU9xoTJ1JT3j_27-18" edge="1">
          <mxGeometry relative="1" as="geometry" />
        </mxCell>
        <mxCell id="wJusNzU9xoTJ1JT3j_27-6" value="管理学生" style="ellipse;whiteSpace=wrap;html=1;fillColor=#d5e8d4;strokeColor=#82b366;" parent="1" vertex="1">
          <mxGeometry x="414" y="120" width="110" height="50" as="geometry" />
        </mxCell>
        <mxCell id="wJusNzU9xoTJ1JT3j_27-27" style="edgeStyle=orthogonalEdgeStyle;rounded=0;orthogonalLoop=1;jettySize=auto;html=1;exitX=1;exitY=0.5;exitDx=0;exitDy=0;entryX=0;entryY=0.5;entryDx=0;entryDy=0;" parent="1" source="wJusNzU9xoTJ1JT3j_27-8" target="wJusNzU9xoTJ1JT3j_27-26" edge="1">
          <mxGeometry relative="1" as="geometry" />
        </mxCell>
        <mxCell id="wJusNzU9xoTJ1JT3j_27-8" value="抽取试题组成试卷" style="ellipse;whiteSpace=wrap;html=1;fillColor=#dae8fc;strokeColor=#6c8ebf;" parent="1" vertex="1">
          <mxGeometry x="414" y="190" width="110" height="40" as="geometry" />
        </mxCell>
        <mxCell id="wJusNzU9xoTJ1JT3j_27-22" style="edgeStyle=orthogonalEdgeStyle;rounded=0;orthogonalLoop=1;jettySize=auto;html=1;exitX=1;exitY=0.5;exitDx=0;exitDy=0;" parent="1" source="wJusNzU9xoTJ1JT3j_27-10" target="wJusNzU9xoTJ1JT3j_27-21" edge="1">
          <mxGeometry relative="1" as="geometry" />
        </mxCell>
        <mxCell id="wJusNzU9xoTJ1JT3j_27-10" value="发布考试试卷" style="ellipse;whiteSpace=wrap;html=1;fillColor=#fff2cc;strokeColor=#d6b656;" parent="1" vertex="1">
          <mxGeometry x="414" y="250" width="120" height="30" as="geometry" />
        </mxCell>
        <mxCell id="wJusNzU9xoTJ1JT3j_27-15" style="edgeStyle=orthogonalEdgeStyle;rounded=0;orthogonalLoop=1;jettySize=auto;html=1;exitX=1;exitY=0.5;exitDx=0;exitDy=0;entryX=0;entryY=0.5;entryDx=0;entryDy=0;" parent="1" source="wJusNzU9xoTJ1JT3j_27-12" target="wJusNzU9xoTJ1JT3j_27-14" edge="1">
          <mxGeometry relative="1" as="geometry" />
        </mxCell>
        <mxCell id="wJusNzU9xoTJ1JT3j_27-12" value="系统管理" style="ellipse;whiteSpace=wrap;html=1;fillColor=#e1d5e7;strokeColor=#9673a6;" parent="1" vertex="1">
          <mxGeometry x="414" y="50" width="110" height="40" as="geometry" />
        </mxCell>
        <mxCell id="wJusNzU9xoTJ1JT3j_27-14" value="界面管理" style="ellipse;whiteSpace=wrap;html=1;fillColor=#dae8fc;strokeColor=#6c8ebf;" parent="1" vertex="1">
          <mxGeometry x="604" y="45" width="110" height="50" as="geometry" />
        </mxCell>
        <mxCell id="wJusNzU9xoTJ1JT3j_27-16" value="成绩管理" style="ellipse;whiteSpace=wrap;html=1;fillColor=#fff2cc;strokeColor=#d6b656;" parent="1" vertex="1">
          <mxGeometry x="616.5" y="150" width="90" height="40" as="geometry" />
        </mxCell>
        <mxCell id="wJusNzU9xoTJ1JT3j_27-18" value="增删改查学生" style="ellipse;whiteSpace=wrap;html=1;fillColor=#fad9d5;strokeColor=#ae4132;" parent="1" vertex="1">
          <mxGeometry x="616.5" y="100" width="90" height="35" as="geometry" />
        </mxCell>
        <mxCell id="wJusNzU9xoTJ1JT3j_27-21" value="发布时段试卷或者是固定试卷" style="ellipse;whiteSpace=wrap;html=1;fillColor=#b1ddf0;strokeColor=#10739e;" parent="1" vertex="1">
          <mxGeometry x="596.5" y="245" width="155" height="40" as="geometry" />
        </mxCell>
        <mxCell id="wJusNzU9xoTJ1JT3j_27-23" value="发布通知类消息" style="ellipse;whiteSpace=wrap;html=1;fillColor=#fad9d5;strokeColor=#ae4132;" parent="1" vertex="1">
          <mxGeometry x="414" y="300" width="140" height="30" as="geometry" />
        </mxCell>
        <mxCell id="wJusNzU9xoTJ1JT3j_27-26" value="试卷的增删改查" style="ellipse;whiteSpace=wrap;html=1;fillColor=#dae8fc;strokeColor=#6c8ebf;" parent="1" vertex="1">
          <mxGeometry x="596.5" y="190" width="110" height="40" as="geometry" />
        </mxCell>
        <mxCell id="wJusNzU9xoTJ1JT3j_27-31" style="edgeStyle=orthogonalEdgeStyle;rounded=0;orthogonalLoop=1;jettySize=auto;html=1;exitX=1;exitY=0.5;exitDx=0;exitDy=0;entryX=0;entryY=0.5;entryDx=0;entryDy=0;" parent="1" source="wJusNzU9xoTJ1JT3j_27-28" target="wJusNzU9xoTJ1JT3j_27-30" edge="1">
          <mxGeometry relative="1" as="geometry" />
        </mxCell>
        <mxCell id="wJusNzU9xoTJ1JT3j_27-28" value="学科管理" style="ellipse;whiteSpace=wrap;html=1;fillColor=#fad9d5;strokeColor=#ae4132;" parent="1" vertex="1">
          <mxGeometry x="414" y="360" width="90" height="40" as="geometry" />
        </mxCell>
        <mxCell id="wJusNzU9xoTJ1JT3j_27-30" value="学科的增删改查" style="ellipse;whiteSpace=wrap;html=1;fillColor=#fad9d5;strokeColor=#ae4132;" parent="1" vertex="1">
          <mxGeometry x="560" y="360" width="90" height="40" as="geometry" />
        </mxCell>
        <mxCell id="R-f7AeW5xme-kYgzX9g4-16" style="edgeStyle=orthogonalEdgeStyle;rounded=0;orthogonalLoop=1;jettySize=auto;html=1;exitX=1;exitY=0.5;exitDx=0;exitDy=0;entryX=0.031;entryY=0.644;entryDx=0;entryDy=0;entryPerimeter=0;" edge="1" parent="1" source="wJusNzU9xoTJ1JT3j_27-32" target="wJusNzU9xoTJ1JT3j_27-35">
          <mxGeometry relative="1" as="geometry" />
        </mxCell>
        <mxCell id="R-f7AeW5xme-kYgzX9g4-17" style="edgeStyle=orthogonalEdgeStyle;rounded=0;orthogonalLoop=1;jettySize=auto;html=1;exitX=1;exitY=0.5;exitDx=0;exitDy=0;entryX=0.008;entryY=0.66;entryDx=0;entryDy=0;entryPerimeter=0;" edge="1" parent="1" source="wJusNzU9xoTJ1JT3j_27-32" target="wJusNzU9xoTJ1JT3j_27-38">
          <mxGeometry relative="1" as="geometry" />
        </mxCell>
        <mxCell id="R-f7AeW5xme-kYgzX9g4-18" style="edgeStyle=orthogonalEdgeStyle;rounded=0;orthogonalLoop=1;jettySize=auto;html=1;exitX=1;exitY=0.5;exitDx=0;exitDy=0;entryX=0;entryY=0.5;entryDx=0;entryDy=0;" edge="1" parent="1" source="wJusNzU9xoTJ1JT3j_27-32" target="wJusNzU9xoTJ1JT3j_27-37">
          <mxGeometry relative="1" as="geometry" />
        </mxCell>
        <mxCell id="wJusNzU9xoTJ1JT3j_27-32" value="获取考试试卷" style="ellipse;whiteSpace=wrap;html=1;fillColor=#d0cee2;strokeColor=#56517e;" parent="1" vertex="1">
          <mxGeometry x="310" y="510" width="120" height="50" as="geometry" />
        </mxCell>
        <mxCell id="R-f7AeW5xme-kYgzX9g4-20" style="edgeStyle=orthogonalEdgeStyle;rounded=0;orthogonalLoop=1;jettySize=auto;html=1;exitX=1;exitY=0.5;exitDx=0;exitDy=0;entryX=0;entryY=0.5;entryDx=0;entryDy=0;" edge="1" parent="1" source="wJusNzU9xoTJ1JT3j_27-35" target="R-f7AeW5xme-kYgzX9g4-19">
          <mxGeometry relative="1" as="geometry" />
        </mxCell>
        <mxCell id="wJusNzU9xoTJ1JT3j_27-35" value="时段试卷" style="ellipse;whiteSpace=wrap;html=1;fillColor=#b1ddf0;strokeColor=#10739e;" parent="1" vertex="1">
          <mxGeometry x="504" y="460" width="90" height="50" as="geometry" />
        </mxCell>
        <mxCell id="R-f7AeW5xme-kYgzX9g4-22" style="edgeStyle=orthogonalEdgeStyle;rounded=0;orthogonalLoop=1;jettySize=auto;html=1;exitX=1;exitY=0.5;exitDx=0;exitDy=0;entryX=0;entryY=0.5;entryDx=0;entryDy=0;" edge="1" parent="1" source="wJusNzU9xoTJ1JT3j_27-37" target="R-f7AeW5xme-kYgzX9g4-19">
          <mxGeometry relative="1" as="geometry" />
        </mxCell>
        <mxCell id="wJusNzU9xoTJ1JT3j_27-37" value="固定试卷" style="ellipse;whiteSpace=wrap;html=1;fillColor=#d5e8d4;gradientColor=#97d077;strokeColor=#82b366;" parent="1" vertex="1">
          <mxGeometry x="504" y="585" width="86" height="40" as="geometry" />
        </mxCell>
        <mxCell id="R-f7AeW5xme-kYgzX9g4-21" style="edgeStyle=orthogonalEdgeStyle;rounded=0;orthogonalLoop=1;jettySize=auto;html=1;exitX=1;exitY=0.5;exitDx=0;exitDy=0;entryX=0;entryY=0.5;entryDx=0;entryDy=0;" edge="1" parent="1" source="wJusNzU9xoTJ1JT3j_27-38" target="R-f7AeW5xme-kYgzX9g4-19">
          <mxGeometry relative="1" as="geometry" />
        </mxCell>
        <mxCell id="wJusNzU9xoTJ1JT3j_27-38" value="任务试卷" style="ellipse;whiteSpace=wrap;html=1;fillColor=#f8cecc;gradientColor=#ea6b66;strokeColor=#b85450;" parent="1" vertex="1">
          <mxGeometry x="504" y="520" width="96" height="50" as="geometry" />
        </mxCell>
        <mxCell id="R-f7AeW5xme-kYgzX9g4-23" style="edgeStyle=orthogonalEdgeStyle;rounded=0;orthogonalLoop=1;jettySize=auto;html=1;exitX=1;exitY=0.5;exitDx=0;exitDy=0;" edge="1" parent="1" source="wJusNzU9xoTJ1JT3j_27-40">
          <mxGeometry relative="1" as="geometry">
            <mxPoint x="750" y="670" as="targetPoint" />
          </mxGeometry>
        </mxCell>
        <mxCell id="wJusNzU9xoTJ1JT3j_27-40" value="考试记录" style="ellipse;whiteSpace=wrap;html=1;fillColor=#e6d0de;gradientColor=#d5739d;strokeColor=#996185;" parent="1" vertex="1">
          <mxGeometry x="407.5" y="650" width="111" height="40" as="geometry" />
        </mxCell>
        <mxCell id="wJusNzU9xoTJ1JT3j_27-42" value="错题本" style="ellipse;whiteSpace=wrap;html=1;fillColor=#fff2cc;gradientColor=#ffd966;strokeColor=#d6b656;" parent="1" vertex="1">
          <mxGeometry x="293" y="710" width="97" height="30" as="geometry" />
        </mxCell>
        <mxCell id="wJusNzU9xoTJ1JT3j_27-44" value="智能训练" style="ellipse;whiteSpace=wrap;html=1;fillColor=#cdeb8b;strokeColor=#36393d;" parent="1" vertex="1">
          <mxGeometry x="312.5" y="770" width="95" height="30" as="geometry" />
        </mxCell>
        <mxCell id="wJusNzU9xoTJ1JT3j_27-46" value="读取管理员消息" style="ellipse;whiteSpace=wrap;html=1;fillColor=#ffcc99;strokeColor=#36393d;" parent="1" vertex="1">
          <mxGeometry x="315.5" y="830" width="94.5" height="40" as="geometry" />
        </mxCell>
        <mxCell id="wJusNzU9xoTJ1JT3j_27-48" value="修改用户信息" style="ellipse;whiteSpace=wrap;html=1;fillColor=#f9f7ed;strokeColor=#36393d;" parent="1" vertex="1">
          <mxGeometry x="315.5" y="890" width="94.5" height="40" as="geometry" />
        </mxCell>
        <mxCell id="R-f7AeW5xme-kYgzX9g4-1" value="学生" style="shape=umlActor;verticalLabelPosition=bottom;verticalAlign=top;html=1;outlineConnect=0;fillColor=#fff2cc;strokeColor=#d6b656;" vertex="1" parent="1">
          <mxGeometry x="20" y="630" width="30" height="60" as="geometry" />
        </mxCell>
        <mxCell id="R-f7AeW5xme-kYgzX9g4-5" value="" style="endArrow=classic;html=1;rounded=0;entryX=0;entryY=0.5;entryDx=0;entryDy=0;" edge="1" parent="1" target="wJusNzU9xoTJ1JT3j_27-40">
          <mxGeometry width="50" height="50" relative="1" as="geometry">
            <mxPoint x="370" y="670" as="sourcePoint" />
            <mxPoint x="410" y="680" as="targetPoint" />
            <Array as="points">
              <mxPoint x="270" y="670" />
            </Array>
          </mxGeometry>
        </mxCell>
        <mxCell id="R-f7AeW5xme-kYgzX9g4-6" value="" style="endArrow=classic;html=1;rounded=0;entryX=0;entryY=0.5;entryDx=0;entryDy=0;" edge="1" parent="1" target="wJusNzU9xoTJ1JT3j_27-48">
          <mxGeometry width="50" height="50" relative="1" as="geometry">
            <mxPoint x="150" y="850" as="sourcePoint" />
            <mxPoint x="280" y="910" as="targetPoint" />
            <Array as="points">
              <mxPoint x="150" y="910" />
            </Array>
          </mxGeometry>
        </mxCell>
        <mxCell id="R-f7AeW5xme-kYgzX9g4-7" value="" style="endArrow=classic;html=1;rounded=0;" edge="1" parent="1">
          <mxGeometry width="50" height="50" relative="1" as="geometry">
            <mxPoint x="150" y="720" as="sourcePoint" />
            <mxPoint x="290" y="720" as="targetPoint" />
          </mxGeometry>
        </mxCell>
        <mxCell id="R-f7AeW5xme-kYgzX9g4-9" value="" style="endArrow=classic;html=1;rounded=0;" edge="1" parent="1">
          <mxGeometry width="50" height="50" relative="1" as="geometry">
            <mxPoint x="150" y="790" as="sourcePoint" />
            <mxPoint x="310" y="790" as="targetPoint" />
          </mxGeometry>
        </mxCell>
        <mxCell id="R-f7AeW5xme-kYgzX9g4-10" value="" style="endArrow=classic;html=1;rounded=0;exitX=1;exitY=0.5;exitDx=0;exitDy=0;" edge="1" parent="1" source="wJusNzU9xoTJ1JT3j_27-40">
          <mxGeometry width="50" height="50" relative="1" as="geometry">
            <mxPoint x="580" y="700" as="sourcePoint" />
            <mxPoint x="590" y="670" as="targetPoint" />
          </mxGeometry>
        </mxCell>
        <mxCell id="R-f7AeW5xme-kYgzX9g4-11" value="获取各科考试的成绩排名情况" style="ellipse;whiteSpace=wrap;html=1;fillColor=#dae8fc;strokeColor=#6c8ebf;" vertex="1" parent="1">
          <mxGeometry x="590" y="650" width="110" height="50" as="geometry" />
        </mxCell>
        <mxCell id="R-f7AeW5xme-kYgzX9g4-12" value="" style="endArrow=classic;html=1;rounded=0;exitX=1;exitY=0.5;exitDx=0;exitDy=0;" edge="1" parent="1" source="wJusNzU9xoTJ1JT3j_27-42">
          <mxGeometry width="50" height="50" relative="1" as="geometry">
            <mxPoint x="650" y="810" as="sourcePoint" />
            <mxPoint x="480" y="725" as="targetPoint" />
          </mxGeometry>
        </mxCell>
        <mxCell id="R-f7AeW5xme-kYgzX9g4-13" value="检索错题本" style="ellipse;whiteSpace=wrap;html=1;fillColor=#fff2cc;strokeColor=#d6b656;" vertex="1" parent="1">
          <mxGeometry x="480" y="710" width="108" height="30" as="geometry" />
        </mxCell>
        <mxCell id="R-f7AeW5xme-kYgzX9g4-14" value="" style="endArrow=classic;html=1;rounded=0;exitX=1;exitY=0.5;exitDx=0;exitDy=0;" edge="1" parent="1" source="wJusNzU9xoTJ1JT3j_27-44">
          <mxGeometry width="50" height="50" relative="1" as="geometry">
            <mxPoint x="440" y="830" as="sourcePoint" />
            <mxPoint x="480" y="785" as="targetPoint" />
          </mxGeometry>
        </mxCell>
        <mxCell id="R-f7AeW5xme-kYgzX9g4-15" value="根据近期不同类型错题组成试卷" style="ellipse;whiteSpace=wrap;html=1;fillColor=#d5e8d4;strokeColor=#82b366;" vertex="1" parent="1">
          <mxGeometry x="480" y="765" width="110" height="40" as="geometry" />
        </mxCell>
        <mxCell id="R-f7AeW5xme-kYgzX9g4-19" value="作答试卷" style="ellipse;whiteSpace=wrap;html=1;fillColor=#e1d5e7;strokeColor=#9673a6;" vertex="1" parent="1">
          <mxGeometry x="660" y="520" width="90" height="50" as="geometry" />
        </mxCell>
        <mxCell id="R-f7AeW5xme-kYgzX9g4-24" value="获取成绩信息" style="ellipse;whiteSpace=wrap;html=1;fillColor=#fff2cc;strokeColor=#d6b656;" vertex="1" parent="1">
          <mxGeometry x="751.5" y="650" width="110" height="40" as="geometry" />
        </mxCell>
      </root>
    </mxGraphModel>
  </diagram>
</mxfile>
